<?xml version="1.0" encoding="iso-8859-1"?>
<!-- Generator: Adobe Illustrator 19.0.0, SVG Export Plug-In . SVG Version: 6.00 Build 0)  -->
<svg version="1.1" id="Layer_1" xmlns="http://www.w3.org/2000/svg" xmlns:xlink="http://www.w3.org/1999/xlink" x="0px" y="0px"
	 viewBox="0 0 512 512" style="enable-background:new 0 0 512 512;" xml:space="preserve">
<circle style="fill:#E9EDF1;" cx="256" cy="256" r="256"/>
<g>
	<path style="fill:#333333;" d="M459.96,398.696V122.744c0-6.6-5.4-12-12-12H64.112c-6.6,0-12,5.4-12,12v275.952
		C52.12,398.696,460.968,398.696,459.96,398.696z"/>
	<rect x="67.112" y="125.744" style="fill:#333333;" width="377.84" height="257.92"/>
</g>
<rect x="16" y="398.696" style="fill:#D8D8D8;" width="479.92" height="7.504"/>
<polygon style="fill:#AAAAAA;" points="472.008,421.192 40.08,421.192 16.08,406.2 496,406.2 "/>
<g style="opacity:0.7;">
	<path style="fill:#FFFFFF;" d="M296.304,398.696h-80.688c0.768,4.208,4.52,7.504,9.216,7.504h62.248
		C291.784,406.2,295.544,402.904,296.304,398.696z"/>
</g>
<g>
	<rect x="368" y="351.744" style="fill:#E9EDF1;" width="32" height="8"/>
	<rect x="316.8" y="351.744" style="fill:#E9EDF1;" width="32" height="8"/>
	<rect x="265.6" y="351.744" style="fill:#E9EDF1;" width="32" height="8"/>
	<rect x="214.4" y="351.744" style="fill:#E9EDF1;" width="32" height="8"/>
	<rect x="163.2" y="351.744" style="fill:#E9EDF1;" width="32" height="8"/>
	<rect x="112" y="351.744" style="fill:#E9EDF1;" width="32" height="8"/>
	<rect x="368" y="149.696" style="fill:#E9EDF1;" width="32" height="8"/>
	<rect x="316.8" y="149.696" style="fill:#E9EDF1;" width="32" height="8"/>
	<rect x="265.6" y="149.696" style="fill:#E9EDF1;" width="32" height="8"/>
	<rect x="214.4" y="149.696" style="fill:#E9EDF1;" width="32" height="8"/>
	<rect x="163.2" y="149.696" style="fill:#E9EDF1;" width="32" height="8"/>
	<rect x="112" y="149.696" style="fill:#E9EDF1;" width="32" height="8"/>
</g>
<g>
	<path style="fill:#8AD5DD;" d="M119.976,239.176l8.624,33.152c1.88,7.272,3.632,14.008,4.848,20.752h0.408
		c1.48-6.608,3.632-13.616,5.792-20.616l10.648-33.288h9.968l10.104,32.616c2.432,7.816,4.32,14.688,5.8,21.296h0.408
		c1.072-6.608,2.824-13.488,4.984-21.16l9.296-32.752h11.736L181.568,304.4h-10.784l-9.968-31.136
		c-2.296-7.28-4.184-13.744-5.8-21.432h-0.272c-1.616,7.824-3.632,14.56-5.928,21.568l-10.512,31H127.52l-19.672-65.224
		L119.976,239.176L119.976,239.176z"/>
	<path style="fill:#8AD5DD;" d="M220.76,239.176l8.624,33.152c1.88,7.272,3.632,14.008,4.848,20.752h0.408
		c1.48-6.608,3.632-13.616,5.792-20.616l10.648-33.288h9.968l10.104,32.616c2.432,7.816,4.32,14.688,5.8,21.296h0.408
		c1.072-6.608,2.824-13.488,4.984-21.16l9.296-32.752h11.736L282.352,304.4h-10.784l-9.968-31.136
		c-2.296-7.28-4.184-13.744-5.8-21.432h-0.28c-1.616,7.824-3.632,14.56-5.928,21.568l-10.512,31h-10.784l-19.672-65.224
		L220.76,239.176L220.76,239.176z"/>
	<path style="fill:#8AD5DD;" d="M321.544,239.176l8.624,33.152c1.88,7.272,3.632,14.008,4.848,20.752h0.408
		c1.48-6.608,3.632-13.616,5.792-20.616l10.648-33.288h9.968l10.104,32.616c2.432,7.816,4.32,14.688,5.8,21.296h0.408
		c1.072-6.608,2.824-13.488,4.984-21.16l9.296-32.752h11.736L383.136,304.4h-10.784l-9.968-31.136
		c-2.296-7.28-4.184-13.744-5.8-21.432h-0.272c-1.616,7.824-3.632,14.56-5.928,21.568l-10.512,31h-10.784l-19.672-65.224
		L321.544,239.176L321.544,239.176z"/>
</g>
<rect x="115.68" y="199.984" style="fill:#DB2B42;" width="288.16" height="8"/>
<g>
</g>
<g>
</g>
<g>
</g>
<g>
</g>
<g>
</g>
<g>
</g>
<g>
</g>
<g>
</g>
<g>
</g>
<g>
</g>
<g>
</g>
<g>
</g>
<g>
</g>
<g>
</g>
<g>
</g>
</svg>
