<?xml version="1.0" encoding="iso-8859-1"?>
<!-- Generator: Adobe Illustrator 19.0.0, SVG Export Plug-In . SVG Version: 6.00 Build 0)  -->
<svg version="1.1" id="Layer_1" xmlns="http://www.w3.org/2000/svg" xmlns:xlink="http://www.w3.org/1999/xlink" x="0px" y="0px"
	 viewBox="0 0 511.778 511.778" style="enable-background:new 0 0 511.778 511.778;" xml:space="preserve">
<g>
	<g>
		<g>
			<path d="M511.264,382.471c-1.007-3.185-3.758-5.493-7.064-5.962l-67.497-9.45l-30.121-58.837c-2.968-5.797-12.479-5.797-15.447,0
				l-30.121,58.837l-67.497,9.45c-3.306,0.469-6.057,2.777-7.064,5.962c-1.007,3.193-0.104,6.665,2.326,8.956l48.649,45.698
				l-11.464,64.451c-0.581,3.237,0.729,6.526,3.358,8.487c2.647,1.961,6.179,2.274,9.103,0.764l60.433-30.616l60.433,30.616
				c1.232,0.642,2.586,0.946,3.922,0.946c1.831,0,3.653-0.581,5.181-1.71c2.629-1.961,3.94-5.25,3.358-8.487l-11.464-64.451
				l48.649-45.698C511.369,389.136,512.271,385.664,511.264,382.471z M444.982,427.692c-2.135,2.013-3.115,4.964-2.595,7.845
				l9.233,51.955l-48.84-24.75c-1.232-0.625-2.577-0.937-3.922-0.937c-1.345,0-2.69,0.312-3.922,0.937l-48.84,24.75l9.233-51.955
				c0.521-2.881-0.46-5.832-2.595-7.845l-38.869-36.508l54.02-7.567c2.794-0.39,5.224-2.117,6.517-4.634l24.455-47.763
				l24.454,47.763c1.293,2.517,3.723,4.244,6.517,4.634l54.02,7.567L444.982,427.692z"/>
			<path d="M350.56,113.209c25.262-8.721,49.456-20.61,71.88-35.909l5.745-4.92C386.2,30.968,329.785,4.179,267.26,0.309
				l-3.072,2.933C301.269,33.684,330.531,71.251,350.56,113.209z"/>
			<path d="M260.231,22.709v106.913c25.088-0.712,49.716-4.452,73.511-11.134C316.152,82.396,291.315,49.828,260.231,22.709z"/>
			<path d="M169.369,118.507c23.769,6.656,48.406,10.405,73.502,11.108V22.694C211.761,49.951,186.933,82.502,169.369,118.507z"/>
			<path d="M145.487,129.116c-26.355-9.233-51.591-21.738-75.012-37.758l-7.723-6.049C25.462,127.641,2.171,182.538,0.114,242.754
				h121.509C122.682,203.182,130.804,164.765,145.487,129.116z"/>
			<path d="M121.626,260.11H0.108c1.979,57.787,23.474,110.696,58.16,152.272l6.673-5.589c24.264-17.304,50.384-30.746,77.659-40.63
				C129.791,332.666,122.606,296.904,121.626,260.11z"/>
			<path d="M242.874,480.158V364.576c-26.364,0.746-52.207,4.825-77.078,12.149C183.525,415.854,209.611,451.13,242.874,480.158z"/>
			<path d="M242.879,260.111H138.978c0.989,34.877,7.862,68.773,20.081,100.508c27.049-8.157,55.148-12.635,83.82-13.399V260.111z"
				/>
			<path d="M152.537,113.239c20.324-42.6,50.124-80.705,88.012-111.39L242.476,0C177.183,2.334,118.155,29.609,74.67,72.626
				l6.057,4.738C103.038,92.62,127.224,104.517,152.537,113.239z"/>
			<path d="M149.227,382.172c-25.964,9.312-50.757,22.016-73.676,38.348l-5.693,4.764c44.154,46.132,105.611,75.507,173.863,77.607
				l-3.176-1.874C200.479,468.561,169.559,427.757,149.227,382.172z"/>
			<path d="M381.483,242.757h121.509c-2.057-60.373-25.461-115.4-62.915-157.774l-7.446,6.37
				c-23.422,16.028-48.657,28.524-75.012,37.758C372.302,164.76,380.424,203.186,381.483,242.757z"/>
			<path d="M340.993,134.5c-26.095,7.558-53.179,11.741-80.766,12.47v95.787h103.901C363.061,205.026,355.147,168.431,340.993,134.5
				z"/>
			<path d="M138.98,242.757h103.893V146.97c-27.579-0.729-54.663-4.912-80.757-12.47
				C147.935,168.457,140.047,205.043,138.98,242.757z"/>
			<path d="M269.902,377.238c3.011-9.494,11.325-16.523,21.192-17.92l58.576-8.201l26.017-50.801
				c4.356-8.513,13.234-13.798,23.17-13.798c9.945,0,18.814,5.285,23.17,13.798l26.017,50.801l32.421,4.539
				c13.616-29.904,21.278-62.178,22.415-95.544H260.234v232.483l15.733,9.303c0.364-0.035,0.746-0.043,1.111-0.087l1.848-0.182
				l32.742-18.814l7.02-39.476l-41.784-39.259C269.65,397.241,266.899,386.723,269.902,377.238z"/>
		</g>
	</g>
</g>
<g>
</g>
<g>
</g>
<g>
</g>
<g>
</g>
<g>
</g>
<g>
</g>
<g>
</g>
<g>
</g>
<g>
</g>
<g>
</g>
<g>
</g>
<g>
</g>
<g>
</g>
<g>
</g>
<g>
</g>
</svg>
